:FULLY-SPECIFIED
:FORCE-ALL-JOINTS-BE-3DOF
:DEGREES
510
root 5.99376 15.6778 -5.26534 179.864 79.5949 174.152
lfemur -29.6652 -12.0931 -22.2007
ltibia 60.6202 -0 0
lfoot -28.196 -3.19404 -0.11493
ltoes 6.92315 -0 0
rfemur -50.8945 0.39152 4.1743
rtibia 69.5819 -0 0
rfoot 6.51307 5.92438 0.00606767
rtoes -27.2942 0 0
lowerback 7.8546 0.359761 -0.211331
upperback 2.61279 0.937618 3.43924
thorax -1.75871 0.556703 3.61195
lowerneck -6.86386 -12.1572 -3.46403
upperneck 9.23243 -16.2143 4.0397
head 4.81658 -7.87547 0.670615
lclavicle 2.72008e-14 1.96361e-14 -1.40119e-29
lhumerus -46.5078 -27.2499 111.998
lradius 57.6179 -0 0
lwrist 12.1236 0 0
lhand -5.97539 -1.94024 0.352126
lfingers 7.12502 -0 0
lthumb 19.8121 26.5093 0.191758
rclavicle 2.72008e-14 1.96361e-14 -1.40119e-29
rhumerus -21.8665 19.386 -90.5938
rradius 102.595 -0 0
rwrist -6.16896 0 0
rhand -20.3415 -22.6669 0.201599
rfingers 7.12502 -0 0
rthumb 6.0057 -52.3639 0.209889
511
root 6.06066 15.6297 -5.20906 -179.887 78.4033 174.512
lfemur -29.748 -11.8556 -22.13
ltibia 61.5389 -0 0
lfoot -28.5268 -3.09633 -0.116623
ltoes 6.22835 -0 0
rfemur -50.7206 0.243374 3.76829
rtibia 68.9195 -0 0
rfoot 6.15935 5.91956 0.00615702
rtoes -27.9766 0 0
lowerback 8.06562 0.409806 -0.153978
upperback 2.7665 1.03206 3.60812
thorax -1.72401 0.609274 3.74709
lowerneck -6.75156 -12.3524 -3.6033
upperneck 9.39355 -16.478 4.16788
head 4.87432 -7.99904 0.705353
lclavicle 2.97118e-14 2.12033e-14 -1.42179e-29
lhumerus -46.3725 -26.9862 111.898
lradius 57.726 -0 0
lwrist 12.6197 0 0
lhand -6.66201 -2.08497 0.357331
lfingers 7.12502 -0 0
lthumb 19.1522 26.4273 0.194591
rclavicle 2.97118e-14 2.12033e-14 -1.42179e-29
rhumerus -20.4563 19.0729 -90.3176
rradius 104.109 -0 0
rwrist -8.05958 0 0
rhand -20.8055 -22.7892 0.204571
rfingers 7.12502 -0 0
rthumb 5.55773 -52.4958 0.212982
512
root 6.12755 15.5816 -5.15279 -179.695 77.2115 174.817
lfemur -29.8305 -11.618 -22.0597
ltibia 62.4576 -0 0
lfoot -28.8575 -2.99861 -0.117751
ltoes 5.53356 -0 0
rfemur -50.5458 0.0964638 3.36184
rtibia 68.2572 -0 0
rfoot 5.80564 5.91474 0.00621659
rtoes -28.6591 0 0
lowerback 8.2767 0.45964 -0.0964409
upperback 2.9205 1.12604 3.77726
thorax -1.6892 0.661763 3.88227
lowerneck -6.63869 -12.5474 -3.74306
upperneck 9.55428 -16.742 4.29546
head 4.93199 -8.12264 0.739975
lclavicle 3.22228e-14 2.27705e-14 -1.43553e-29
lhumerus -46.238 -26.7224 111.799
lradius 57.834 -0 0
lwrist 13.1157 0 0
lhand -7.34864 -2.22974 0.360802
lfingers 7.12502 -0 0
lthumb 18.4923 26.3453 0.19648
rclavicle 3.22228e-14 2.27705e-14 -1.43553e-29
rhumerus -19.0504 18.7535 -90.0502
rradius 105.622 -0 0
rwrist -9.95021 0 0
rhand -21.2696 -22.9115 0.206553
rfingers 7.12502 -0 0
rthumb 5.10975 -52.6276 0.215045
513
root 6.19444 15.5335 -5.09651 -179.545 76.0195 175.079
lfemur -29.9126 -11.3803 -21.9898
ltibia 63.3763 -0 0
lfoot -29.1882 -2.90088 -0.118315
ltoes 4.83876 -0 0
rfemur -50.3698 -0.0492011 2.95494
rtibia 67.5949 -0 0
rfoot 5.45193 5.90991 0.00624637
rtoes -29.3416 0 0
lowerback 8.48782 0.509261 -0.0387203
upperback 3.07478 1.21957 3.94665
thorax -1.65426 0.714169 4.01748
lowerneck -6.52525 -12.742 -3.88332
upperneck 9.71462 -17.0063 4.42244
head 4.98961 -8.24628 0.774483
lclavicle 3.47338e-14 2.43378e-14 -1.4424e-29
lhumerus -46.1044 -26.4583 111.701
lradius 57.942 -0 0
lwrist 13.6118 0 0
lhand -8.03528 -2.37455 0.362537
lfingers 7.12502 -0 0
lthumb 17.8324 26.2633 0.197425
rclavicle 3.47338e-14 2.43378e-14 -1.4424e-29
rhumerus -17.6487 18.428 -89.7916
rradius 107.135 -0 0
rwrist -11.8408 0 0
rhand -21.7336 -23.0338 0.207543
rfingers 7.12502 -0 0
rthumb 4.66177 -52.7595 0.216076
514
root 6.26133 15.4854 -5.04024 -179.427 74.8273 175.309
lfemur -29.9943 -11.1426 -21.9203
ltibia 64.2951 -0 0
lfoot -29.519 -2.80316 -0.118315
ltoes 4.14396 -0 0
rfemur -50.1929 -0.193612 2.54759
rtibia 66.9326 -0 0
rfoot 5.09821 5.90509 0.00624637
rtoes -30.024 0 0
lowerback 8.699 0.558669 0.0191832
upperback 3.22934 1.31265 4.1163
thorax -1.61919 0.766493 4.15272
lowerneck -6.41122 -12.9364 -4.02408
upperneck 9.87458 -17.271 4.54883
head 5.04717 -8.36995 0.808875
lclavicle 3.72449e-14 2.5905e-14 -1.4424e-29
lhumerus -45.9715 -26.1941 111.604
lradius 58.05 -0 0
lwrist 14.1078 0 0
lhand -8.72192 -2.51936 0.362537
lfingers 7.12502 -0 0
lthumb 17.1724 26.1813 0.197425
rclavicle 3.72449e-14 2.5905e-14 -1.4424e-29
rhumerus -16.2512 18.0966 -89.5419
rradius 108.648 -0 0
rwrist -13.7315 0 0
rhand -22.1977 -23.1561 0.207543
rfingers 7.12502 -0 0
rthumb 4.21379 -52.8915 0.216076
515
root 6.32821 15.4373 -4.98398 -179.335 73.6351 175.514
lfemur -30.0757 -10.9047 -21.8512
ltibia 65.2138 -0 0
lfoot -29.8497 -2.70543 -0.117751
ltoes 3.44916 -0 0
rfemur -50.0149 -0.336761 2.13979
rtibia 66.2703 -0 0
rfoot 4.7445 5.90026 0.00621659
rtoes -30.7065 0 0
lowerback 8.91023 0.607864 0.0772689
upperback 3.38418 1.40526 4.28621
thorax -1.58401 0.818735 4.28799
lowerneck -6.29662 -13.1305 -4.16536
upperneck 10.0342 -17.536 4.67463
head 5.10468 -8.49365 0.843153
lclavicle 3.97559e-14 2.74723e-14 -1.43553e-29
lhumerus -45.8395 -25.9296 111.508
lradius 58.158 -0 0
lwrist 14.6038 0 0
lhand -9.40856 -2.66417 0.360802
lfingers 7.12502 -0 0
lthumb 16.5125 26.0993 0.19648
rclavicle 3.97559e-14 2.74723e-14 -1.43553e-29
rhumerus -14.8578 17.7596 -89.3013
rradius 110.161 -0 0
rwrist -15.6221 0 0
rhand -22.6617 -23.2784 0.206553
rfingers 7.12502 -0 0
rthumb 3.76581 -53.0234 0.215045
516
root 6.3951 15.3892 -4.92771 -179.263 72.4427 175.699
lfemur -30.1567 -10.6667 -21.7825
ltibia 66.1325 -0 0
lfoot -30.1804 -2.60771 -0.116623
ltoes 2.75437 -0 0
rfemur -49.8359 -0.478639 1.73154
rtibia 65.608 -0 0
rfoot 4.39079 5.89544 0.00615702
rtoes -31.389 0 0
lowerback 9.12151 0.656844 0.135536
upperback 3.53931 1.49742 4.45638
thorax -1.54869 0.870893 4.4233
lowerneck -6.18144 -13.3243 -4.30714
upperneck 10.1933 -17.8013 4.79984
head 5.16213 -8.61739 0.877317
lclavicle 4.22669e-14 2.90395e-14 -1.42179e-29
lhumerus -45.7083 -25.665 111.413
lradius 58.266 -0 0
lwrist 15.0999 0 0
lhand -10.0952 -2.80894 0.357331
lfingers 7.12502 -0 0
lthumb 15.8526 26.0173 0.194591
rclavicle 4.22669e-14 2.90395e-14 -1.42179e-29
rhumerus -13.4686 17.417 -89.0698
rradius 111.675 -0 0
rwrist -17.5127 0 0
rhand -23.1258 -23.4007 0.204571
rfingers 7.12502 -0 0
rthumb 3.31783 -53.1552 0.212982
517
root 6.46198 15.3411 -4.87145 -179.208 71.2503 175.869
lfemur -30.2374 -10.4287 -21.7142
ltibia 67.0512 -0 0
lfoot -30.5112 -2.51 -0.11493
ltoes 2.05957 -0 0
rfemur -49.6559 -0.619238 1.32285
rtibia 64.9456 -0 0
rfoot 4.03707 5.89062 0.00606767
rtoes -32.0714 0 0
lowerback 9.33284 0.705609 0.193984
upperback 3.69471 1.58911 4.6268
thorax -1.51326 0.922967 4.55865
lowerneck -6.06567 -13.5179 -4.44944
upperneck 10.3522 -18.067 4.92446
head 5.21952 -8.74116 0.911366
lclavicle 4.47779e-14 3.06068e-14 -1.40119e-29
lhumerus -45.5778 -25.4001 111.319
lradius 58.3741 -0 0
lwrist 15.5959 0 0
lhand -10.7818 -2.95366 0.352126
lfingers 7.12502 -0 0
lthumb 15.1927 25.9353 0.191758
rclavicle 4.47779e-14 3.06068e-14 -1.40119e-29
rhumerus -12.0835 17.0692 -88.8474
rradius 113.188 -0 0
rwrist -19.4033 0 0
rhand -23.5898 -23.523 0.201599
rfingers 7.12502 -0 0
rthumb 2.86986 -53.2871 0.209889
518
root 6.52885 15.293 -4.8152 -179.166 70.0579 176.025
lfemur -30.3177 -10.1905 -21.6463
ltibia 67.9699 -0 0
lfoot -30.8419 -2.4123 -0.112674
ltoes 1.36477 -0 0
rfemur -49.4749 -0.758548 0.913697
rtibia 64.2833 -0 0
rfoot 3.68336 5.88579 0.00594854
rtoes -32.7539 0 0
lowerback 9.54423 0.754158 0.252613
upperback 3.85039 1.68034 4.79748
thorax -1.4777 0.974958 4.69402
lowerneck -5.94931 -13.7112 -4.59226
upperneck 10.5106 -18.3329 5.04849
head 5.27686 -8.86496 0.945302
lclavicle 4.72889e-14 3.2174e-14 -1.37371e-29
lhumerus -45.4481 -25.1351 111.225
lradius 58.4821 -0 0
lwrist 16.092 0 0
lhand -11.4684 -3.09831 0.345187
lfingers 7.12502 -0 0
lthumb 14.5327 25.8534 0.187981
rclavicle 4.72889e-14 3.2174e-14 -1.37371e-29
rhumerus -10.7023 16.7164 -88.6344
rradius 114.701 -0 0
rwrist -21.294 0 0
rhand -24.0539 -23.6453 0.197637
rfingers 7.12502 -0 0
rthumb 2.4219 -53.419 0.205764
519
root 6.59572 15.2448 -4.75895 -179.135 68.8654 176.17
lfemur -30.3977 -9.95225 -21.5788
ltibia 68.8886 -0 0
lfoot -31.1726 -2.31461 -0.109854
ltoes 0.669976 -0 0
rfemur -49.2929 -0.896561 0.504095
rtibia 63.621 -0 0
rfoot 3.32964 5.88097 0.00579965
rtoes -33.4364 0 0
lowerback 9.75567 0.80249 0.31142
upperback 4.00635 1.77111 4.96841
thorax -1.44202 1.02686 4.82944
lowerneck -5.83236 -13.9042 -4.7356
upperneck 10.6687 -18.5993 5.17194
head 5.33414 -8.9888 0.979123
lclavicle 4.98e-14 3.37413e-14 -1.33937e-29
lhumerus -45.3191 -24.8699 111.133
lradius 58.5901 -0 0
lwrist 16.588 0 0
lhand -12.155 -3.24287 0.336515
lfingers 7.12502 -0 0
lthumb 13.8728 25.7716 0.183261
rclavicle 4.98e-14 3.37413e-14 -1.33937e-29
rhumerus -9.32505 16.3588 -88.4306
rradius 116.214 -0 0
rwrist -23.1846 0 0
rhand -24.5179 -23.7675 0.192685
rfingers 7.12502 -0 0
rthumb 1.97394 -53.5508 0.200609
